<?xml version="1.0" encoding="utf-8"?>
<!-- Generator: Adobe Illustrator 26.0.2, SVG Export Plug-In . SVG Version: 6.00 Build 0)  -->
<svg version="1.1" id="Layer_1" xmlns="http://www.w3.org/2000/svg" xmlns:xlink="http://www.w3.org/1999/xlink" x="0px" y="0px"
	 viewBox="0 0 1067.74 733.79" style="enable-background:new 0 0 1067.74 733.79;" xml:space="preserve">
<style type="text/css">
	.st0{fill:#0388E3;}
	.st1{fill:#009CEA;}
	.st2{fill:#FFFFFF;stroke:#000000;stroke-miterlimit:10;}
	.st3{opacity:0.53;fill:#231F20;}
</style>
<path class="st0" d="M1052.8,430.04c-17.49,38.82-60.83,57.74-87.84,69.55c-65.3,28.55-129.98,26.43-130.55,24.02
	c-0.63-2.58,74.94-2.87,137.49-45.29c39.27-26.66,56.76-58.6,54.53-59.92c-2.69-1.61-32.74,45.18-93.8,67.14
	c-9.63,3.44-19.32,6.02-28.95,7.91c-4.01,0.8-8.03,1.43-12.04,1.95l-8.03,0.97c-24.37,2.52-47.65,0.97-67.54-1.78
	c16.23-0.57,31.99-2.29,47.07-4.93c4.19-0.75,8.31-1.55,12.38-2.47c6.99-1.49,13.88-3.21,20.47-5.16
	c51.77-15.08,91.05-42.37,104.12-75.22c26.6-67.02-50.51-170.23-202.05-189.03c18.75,1.49,181.87,16.68,240.12,112.49
	C1047.36,345.35,1072.35,386.58,1052.8,430.04z"/>
<path class="st1" d="M86.11,322.59c-36.27,59.46-33.3,101.84-30.68,118.72C69.86,534.4,191.51,613.79,359.3,601.92
	c-46.09,7.72-110.28,11.11-181.56-11.68C115.79,570.44,75,539.36,73.75,542.08c-1.65,3.6,65.9,65.94,161.66,94.91
	c99.92,30.23,178.09,8.26,178.11,8.73c0.03,0.61-129.77,41.56-258.4-23.14C129.05,609.47,5.99,547.56,8.78,448.61
	C10.7,380.48,71.19,333.56,86.11,322.59z"/>
<g>
	<g>
		<path class="st1" d="M282.58,451.24l129.95,81.29c0.33-9.36,0.66-18.72,0.99-28.08c0.1-0.75,0.67-4.51,4.08-7.14
			c3.83-2.96,8.17-2.14,8.81-2.01C378.46,480.6,330.52,465.92,282.58,451.24z"/>
		<path class="st1" d="M809.76,723.15c-42.62-40.43-85.23-80.85-127.85-121.28c60.8-14.4,101.56-35.91,100.42-54.96
			c-0.79-13.32-22.31-29.67-43.71-33.93c-9.42-1.88-17.57-1.16-23.13-0.17c-42.59,12.65-85.17,25.31-127.76,37.96
			c-33.34-10.95-66.68-21.9-100.02-32.85l28.47,59.13l-28.47-1.46c-9.25-20.44-18.49-40.88-27.74-61.32
			c-1.9-1.44-4.83-3.27-8.76-4.38c-7.67-2.17-14.2-0.21-16.79,0.73l-3.65,88.34c-13.39,8.7-19.47,15.76-18.25,21.17
			c3.18,14.15,56.24,17.07,159.15,8.76C651.04,660.31,730.4,691.73,809.76,723.15z"/>
	</g>
</g>
<path class="st2" d="M884.01,464.15l-27.18,13.53C728.57,412.55,600.37,347.3,472.11,282.06
	c-93.63,58.08-187.2,116.16-280.83,174.24l-0.17,0.11c-4.53,2.64-8.83,5.45-13.36,8.26c-18.98,11.75-37.96,23.56-56.93,35.32
	c-12.73-16.91-23.28-34.46-31.42-52.46l153.72-175.85l48.85,67.25l0.17,0.23L577.5,6.1L884.01,464.15z"/>
<path class="st3" d="M243.11,271.7l-65.36,192.99l-0.34,1.03l-56.25,34.69c-0.11-0.11-0.23-0.23-0.34-0.4
	c-12.73-16.91-23.28-34.46-31.42-52.46L243.11,271.7z"/>
<polygon class="st3" points="577.48,6.12 189.7,458.15 472.11,282.07 "/>
</svg>
