<?xml version="1.0" encoding="utf-8"?>
<!-- Generator: Adobe Illustrator 26.0.2, SVG Export Plug-In . SVG Version: 6.00 Build 0)  -->
<svg version="1.1" id="Layer_1" xmlns="http://www.w3.org/2000/svg" xmlns:xlink="http://www.w3.org/1999/xlink" x="0px" y="0px"
	 viewBox="0 0 1007.38 687.21" style="enable-background:new 0 0 1007.38 687.21;" xml:space="preserve">
<style type="text/css">
	.st0{fill:#0388E3;}
	.st1{fill:#009CEA;}
	.st2{fill:#FFFFFF;}
	.st3{opacity:0.53;fill:#231F20;}
</style>
<g>
	<path class="st0" d="M992.76,403.7c-16.55,36.73-57.56,54.63-83.11,65.81c-61.79,27.02-122.99,25.01-123.53,22.73
		c-0.6-2.44,70.91-2.71,130.09-42.86c37.16-25.23,53.71-55.45,51.59-56.69c-2.55-1.52-30.98,42.75-88.76,63.53
		c-9.11,3.26-18.28,5.7-27.4,7.49c-3.8,0.76-7.59,1.36-11.39,1.84l-7.6,0.92c-23.06,2.39-45.08,0.92-63.91-1.68
		c15.35-0.54,30.27-2.17,44.54-4.67c3.96-0.71,7.87-1.46,11.72-2.33c6.62-1.41,13.13-3.04,19.37-4.88
		c48.99-14.27,86.15-40.09,98.52-71.18c25.17-63.42-47.8-161.07-191.18-178.87c17.74,1.41,172.09,15.79,227.2,106.44
		C987.6,323.57,1011.26,362.57,992.76,403.7z"/>
	<path class="st1" d="M78.06,302.03c-34.31,56.26-31.51,96.36-29.03,112.34c13.65,88.08,128.76,163.2,287.52,151.97
		c-43.61,7.31-104.35,10.51-171.8-11.05c-58.61-18.74-97.21-48.15-98.39-45.57c-1.56,3.41,62.36,62.39,152.96,89.81
		c94.55,28.61,168.51,7.81,168.53,8.26c0.03,0.58-122.79,39.33-244.5-21.9C118.69,573.48,2.25,514.9,4.89,421.27
		C6.7,356.81,63.94,312.41,78.06,302.03z"/>
	<g>
		<g>
			<path class="st1" d="M263.96,423.75l122.96,76.91c0.31-8.86,0.62-17.71,0.93-26.57c0.09-0.71,0.63-4.27,3.86-6.76
				c3.62-2.8,7.73-2.02,8.33-1.9C354.68,451.54,309.32,437.65,263.96,423.75z"/>
			<path class="st1" d="M762.79,681.05c-40.32-38.25-80.65-76.5-120.97-114.76c57.53-13.62,96.09-33.98,95.02-52
				c-0.75-12.6-21.11-28.07-41.36-32.11c-8.91-1.78-16.62-1.1-21.89-0.16c-40.3,11.97-80.59,23.95-120.89,35.92
				c-31.55-10.36-63.09-20.72-94.64-31.09l26.94,55.95l-26.94-1.38c-8.75-19.34-17.5-38.68-26.25-58.03
				c-1.8-1.36-4.57-3.09-8.29-4.14c-7.26-2.06-13.43-0.2-15.89,0.69l-3.45,83.58c-12.67,8.23-18.42,14.91-17.27,20.03
				c3.01,13.39,53.21,16.15,150.59,8.29C612.6,621.58,687.7,651.32,762.79,681.05z"/>
		</g>
	</g>
	<path class="st2" d="M833.04,435.98l-25.72,12.8C685.97,387.15,564.66,325.41,443.3,263.67
		c-88.59,54.96-177.13,109.91-265.72,164.87l-0.16,0.11c-4.29,2.5-8.35,5.15-12.64,7.81c-17.96,11.12-35.91,22.3-53.87,33.42
		c-12.04-16-22.03-32.61-29.73-49.64l145.45-166.39l46.22,63.64l0.16,0.22L543.01,2.56L833.04,435.98z"/>
	<path class="st3" d="M226.61,253.88l-61.85,182.61l-0.33,0.98l-53.22,32.82c-0.11-0.11-0.22-0.22-0.33-0.38
		c-12.04-16-22.03-32.6-29.73-49.64L226.61,253.88z"/>
	<polygon class="st3" points="543,2.58 176.07,430.3 443.3,263.69 	"/>
</g>
</svg>
